<svg xmlns="http://www.w3.org/2000/svg" width="180" height="180" viewBox="0 0 180 180"><defs></defs><path d="M90 4 C156 4 176 24 176 90 C176 156 156 176 90 176 C24 176 4 156 4 90 C4 24 24 4 90 4 Z" fill="#3d2c22"></path><g transform="translate(15,15)"><path d="M14 46 L14 26 C14 19 19 14 26 14 L46 14" stroke="#f5a623" stroke-width="11" stroke-linecap="round" fill="none"></path>
<path d="M104 14 L124 14 C131 14 136 19 136 26 L136 46" stroke="#f5a623" stroke-width="11" stroke-linecap="round" fill="none"></path>
<path d="M136 104 L136 124 C136 131 131 136 124 136 L104 136" stroke="#f5a623" stroke-width="11" stroke-linecap="round" fill="none"></path>
<path d="M46 136 L26 136 C19 136 14 131 14 124 L14 104" stroke="#f5a623" stroke-width="11" stroke-linecap="round" fill="none"></path>
<text x="75" y="100" text-anchor="middle" font-family="Zain, sans-serif" font-size="66" font-weight="800" fill="#faf3ea">هـ</text></g></svg>